<svg xmlns="http://www.w3.org/2000/svg" viewBox="0 0 1920 1080" preserveAspectRatio="xMidYMid slice">
<defs>
<filter id="grain"><feTurbulence type="fractalNoise" baseFrequency="0.85" numOctaves="2" stitchTiles="stitch" result="n"></feTurbulence><feColorMatrix in="n" type="matrix" values="0 0 0 0 1  0 0 0 0 1  0 0 0 0 1  0 0 0 0.035 0"></feColorMatrix></filter>
</defs>
<rect width="1920" height="1080" fill="#0a0c0e"></rect>
<polygon points="-53.6,-8.4 188.5,-40.9 67.0,231.0" fill="#111417"></polygon>
<polygon points="188.5,-40.9 222.5,163.4 67.0,231.0" fill="#0e1113"></polygon>
<polygon points="188.5,-40.9 414.5,-18.6 496.8,142.6" fill="#23272b"></polygon>
<polygon points="188.5,-40.9 496.8,142.6 222.5,163.4" fill="#0c0e10"></polygon>
<polygon points="414.5,-18.6 695.4,34.0 625.9,126.1" fill="#0b0d0f"></polygon>
<polygon points="414.5,-18.6 625.9,126.1 496.8,142.6" fill="#15181b"></polygon>
<polygon points="695.4,34.0 882.2,-8.5 625.9,126.1" fill="#191d20"></polygon>
<polygon points="882.2,-8.5 796.5,199.5 625.9,126.1" fill="#15181b"></polygon>
<polygon points="882.2,-8.5 1140.1,-25.6 1130.1,213.2" fill="#191d20"></polygon>
<polygon points="882.2,-8.5 1130.1,213.2 796.5,199.5" fill="#0c0e10"></polygon>
<polygon points="1140.1,-25.6 1208.5,-43.2 1130.1,213.2" fill="#23272b"></polygon>
<polygon points="1208.5,-43.2 1313.3,213.9 1130.1,213.2" fill="#15181b"></polygon>
<polygon points="1208.5,-43.2 1456.1,61.1 1509.1,232.0" fill="#0b0d0f"></polygon>
<polygon points="1208.5,-43.2 1509.1,232.0 1313.3,213.9" fill="#0e1113"></polygon>
<polygon points="1456.1,61.1 1665.3,26.8 1509.1,232.0" fill="#0c0e10"></polygon>
<polygon points="1665.3,26.8 1716.4,117.5 1509.1,232.0" fill="#0e1113"></polygon>
<polygon points="1665.3,26.8 1854.0,-47.5 1716.4,117.5" fill="#191d20"></polygon>
<polygon points="1854.0,-47.5 1929.9,132.4 1716.4,117.5" fill="#0b0d0f"></polygon>
<polygon points="67.0,231.0 222.5,163.4 198.1,338.0" fill="#0a0c0d"></polygon>
<polygon points="67.0,231.0 198.1,338.0 -7.0,333.8" fill="#0e1113"></polygon>
<polygon points="222.5,163.4 496.8,142.6 198.1,338.0" fill="#0b0d0f"></polygon>
<polygon points="496.8,142.6 418.8,375.9 198.1,338.0" fill="#2a2f34"></polygon>
<polygon points="496.8,142.6 625.9,126.1 418.8,375.9" fill="#0e1113"></polygon>
<polygon points="625.9,126.1 647.3,330.2 418.8,375.9" fill="#111417"></polygon>
<polygon points="625.9,126.1 796.5,199.5 647.3,330.2" fill="#15181b"></polygon>
<polygon points="796.5,199.5 915.6,384.3 647.3,330.2" fill="#0a0c0d"></polygon>
<polygon points="796.5,199.5 1130.1,213.2 915.6,384.3" fill="#191d20"></polygon>
<polygon points="1130.1,213.2 1032.3,384.4 915.6,384.3" fill="#15181b"></polygon>
<polygon points="1130.1,213.2 1313.3,213.9 1032.3,384.4" fill="#15181b"></polygon>
<polygon points="1313.3,213.9 1244.5,399.1 1032.3,384.4" fill="#0b0d0f"></polygon>
<polygon points="1313.3,213.9 1509.1,232.0 1244.5,399.1" fill="#15181b"></polygon>
<polygon points="1509.1,232.0 1441.6,401.0 1244.5,399.1" fill="#15181b"></polygon>
<polygon points="1509.1,232.0 1716.4,117.5 1441.6,401.0" fill="#111417"></polygon>
<polygon points="1716.4,117.5 1713.3,366.2 1441.6,401.0" fill="#1e2225"></polygon>
<polygon points="1716.4,117.5 1929.9,132.4 1916.6,400.9" fill="#0e1113"></polygon>
<polygon points="1716.4,117.5 1916.6,400.9 1713.3,366.2" fill="#0c0e10"></polygon>
<polygon points="-7.0,333.8 198.1,338.0 36.2,578.5" fill="#2a2f34"></polygon>
<polygon points="198.1,338.0 159.0,595.8 36.2,578.5" fill="#0e1113"></polygon>
<polygon points="198.1,338.0 418.8,375.9 459.9,503.3" fill="#0e1113"></polygon>
<polygon points="198.1,338.0 459.9,503.3 159.0,595.8" fill="#191d20"></polygon>
<polygon points="418.8,375.9 647.3,330.2 459.9,503.3" fill="#15181b"></polygon>
<polygon points="647.3,330.2 577.9,531.2 459.9,503.3" fill="#191d20"></polygon>
<polygon points="647.3,330.2 915.6,384.3 907.3,583.4" fill="#0a0c0d"></polygon>
<polygon points="647.3,330.2 907.3,583.4 577.9,531.2" fill="#0e1113"></polygon>
<polygon points="915.6,384.3 1032.3,384.4 907.3,583.4" fill="#15181b"></polygon>
<polygon points="1032.3,384.4 1092.7,492.5 907.3,583.4" fill="#15181b"></polygon>
<polygon points="1032.3,384.4 1244.5,399.1 1284.9,542.6" fill="#0a0c0d"></polygon>
<polygon points="1032.3,384.4 1284.9,542.6 1092.7,492.5" fill="#15181b"></polygon>
<polygon points="1244.5,399.1 1441.6,401.0 1524.8,539.3" fill="#0b0d0f"></polygon>
<polygon points="1244.5,399.1 1524.8,539.3 1284.9,542.6" fill="#0a0c0d"></polygon>
<polygon points="1441.6,401.0 1713.3,366.2 1524.8,539.3" fill="#111417"></polygon>
<polygon points="1713.3,366.2 1767.0,591.8 1524.8,539.3" fill="#15181b"></polygon>
<polygon points="1713.3,366.2 1916.6,400.9 1880.7,598.0" fill="#0e1113"></polygon>
<polygon points="1713.3,366.2 1880.7,598.0 1767.0,591.8" fill="#0b0d0f"></polygon>
<polygon points="36.2,578.5 159.0,595.8 -73.2,724.3" fill="#0a0c0d"></polygon>
<polygon points="159.0,595.8 214.3,670.0 -73.2,724.3" fill="#0c0e10"></polygon>
<polygon points="159.0,595.8 459.9,503.3 402.1,688.3" fill="#111417"></polygon>
<polygon points="159.0,595.8 402.1,688.3 214.3,670.0" fill="#15181b"></polygon>
<polygon points="459.9,503.3 577.9,531.2 640.0,659.4" fill="#191d20"></polygon>
<polygon points="459.9,503.3 640.0,659.4 402.1,688.3" fill="#0e1113"></polygon>
<polygon points="577.9,531.2 907.3,583.4 640.0,659.4" fill="#0e1113"></polygon>
<polygon points="907.3,583.4 835.6,658.6 640.0,659.4" fill="#0c0e10"></polygon>
<polygon points="907.3,583.4 1092.7,492.5 1073.3,726.0" fill="#0e1113"></polygon>
<polygon points="907.3,583.4 1073.3,726.0 835.6,658.6" fill="#111417"></polygon>
<polygon points="1092.7,492.5 1284.9,542.6 1227.9,686.1" fill="#0b0d0f"></polygon>
<polygon points="1092.7,492.5 1227.9,686.1 1073.3,726.0" fill="#2a2f34"></polygon>
<polygon points="1284.9,542.6 1524.8,539.3 1520.7,729.0" fill="#0c0e10"></polygon>
<polygon points="1284.9,542.6 1520.7,729.0 1227.9,686.1" fill="#191d20"></polygon>
<polygon points="1524.8,539.3 1767.0,591.8 1520.7,729.0" fill="#2a2f34"></polygon>
<polygon points="1767.0,591.8 1764.2,661.5 1520.7,729.0" fill="#23272b"></polygon>
<polygon points="1767.0,591.8 1880.7,598.0 1932.5,751.0" fill="#0a0c0d"></polygon>
<polygon points="1767.0,591.8 1932.5,751.0 1764.2,661.5" fill="#191d20"></polygon>
<polygon points="-73.2,724.3 214.3,670.0 -30.5,877.8" fill="#15181b"></polygon>
<polygon points="214.3,670.0 237.5,840.5 -30.5,877.8" fill="#0a0c0d"></polygon>
<polygon points="214.3,670.0 402.1,688.3 237.5,840.5" fill="#191d20"></polygon>
<polygon points="402.1,688.3 420.9,842.2 237.5,840.5" fill="#15181b"></polygon>
<polygon points="402.1,688.3 640.0,659.4 570.4,955.4" fill="#191d20"></polygon>
<polygon points="402.1,688.3 570.4,955.4 420.9,842.2" fill="#0c0e10"></polygon>
<polygon points="640.0,659.4 835.6,658.6 783.5,946.2" fill="#15181b"></polygon>
<polygon points="640.0,659.4 783.5,946.2 570.4,955.4" fill="#0e1113"></polygon>
<polygon points="835.6,658.6 1073.3,726.0 783.5,946.2" fill="#0a0c0d"></polygon>
<polygon points="1073.3,726.0 1108.5,843.6 783.5,946.2" fill="#0b0d0f"></polygon>
<polygon points="1073.3,726.0 1227.9,686.1 1351.5,887.4" fill="#191d20"></polygon>
<polygon points="1073.3,726.0 1351.5,887.4 1108.5,843.6" fill="#0c0e10"></polygon>
<polygon points="1227.9,686.1 1520.7,729.0 1351.5,887.4" fill="#111417"></polygon>
<polygon points="1520.7,729.0 1490.5,865.5 1351.5,887.4" fill="#0b0d0f"></polygon>
<polygon points="1520.7,729.0 1764.2,661.5 1490.5,865.5" fill="#1e2225"></polygon>
<polygon points="1764.2,661.5 1751.8,885.6 1490.5,865.5" fill="#111417"></polygon>
<polygon points="1764.2,661.5 1932.5,751.0 1751.8,885.6" fill="#2a2f34"></polygon>
<polygon points="1932.5,751.0 1957.9,913.5 1751.8,885.6" fill="#0c0e10"></polygon>
<polygon points="-30.5,877.8 237.5,840.5 157.5,1131.5" fill="#0c0e10"></polygon>
<polygon points="-30.5,877.8 157.5,1131.5 -25.5,1070.2" fill="#111417"></polygon>
<polygon points="237.5,840.5 420.9,842.2 400.7,1078.1" fill="#0a0c0d"></polygon>
<polygon points="237.5,840.5 400.7,1078.1 157.5,1131.5" fill="#0e1113"></polygon>
<polygon points="420.9,842.2 570.4,955.4 663.6,1130.1" fill="#0e1113"></polygon>
<polygon points="420.9,842.2 663.6,1130.1 400.7,1078.1" fill="#0b0d0f"></polygon>
<polygon points="570.4,955.4 783.5,946.2 816.6,1034.5" fill="#0c0e10"></polygon>
<polygon points="570.4,955.4 816.6,1034.5 663.6,1130.1" fill="#111417"></polygon>
<polygon points="783.5,946.2 1108.5,843.6 1135.4,1104.9" fill="#111417"></polygon>
<polygon points="783.5,946.2 1135.4,1104.9 816.6,1034.5" fill="#0c0e10"></polygon>
<polygon points="1108.5,843.6 1351.5,887.4 1135.4,1104.9" fill="#111417"></polygon>
<polygon points="1351.5,887.4 1278.1,1129.0 1135.4,1104.9" fill="#2a2f34"></polygon>
<polygon points="1351.5,887.4 1490.5,865.5 1516.9,1063.4" fill="#15181b"></polygon>
<polygon points="1351.5,887.4 1516.9,1063.4 1278.1,1129.0" fill="#15181b"></polygon>
<polygon points="1490.5,865.5 1751.8,885.6 1723.6,1137.0" fill="#0c0e10"></polygon>
<polygon points="1490.5,865.5 1723.6,1137.0 1516.9,1063.4" fill="#15181b"></polygon>
<polygon points="1751.8,885.6 1957.9,913.5 1858.3,1074.9" fill="#0a0c0d"></polygon>
<polygon points="1751.8,885.6 1858.3,1074.9 1723.6,1137.0" fill="#0c0e10"></polygon>
<rect width="1920" height="1080" filter="url(#grain)"></rect>
</svg>
